<svg id="Group_953" data-name="Group 953" xmlns="http://www.w3.org/2000/svg" width="45.433" height="45.483" viewBox="0 0 45.433 45.483">
  <g id="Group_951" data-name="Group 951">
    <g id="Group_950" data-name="Group 950">
      <path id="Path_657" data-name="Path 657" d="M22.716,47.483A22.742,22.742,0,1,1,45.433,24.716,22.773,22.773,0,0,1,22.716,47.483Zm0-43.451A20.709,20.709,0,1,0,43.4,24.767,20.745,20.745,0,0,0,22.716,4.033Z" transform="translate(0 -2)" fill="#fff"/>
    </g>
  </g>
  <g id="Group_952" data-name="Group 952" transform="translate(15.551 11.485)">
    <path id="Path_658" data-name="Path 658" d="M41.526,36.847h-3.4V47.875H33.039V36.847H30.6v-4.32h2.439v-2.8c0-1.982.966-5.133,5.133-5.133h3.761v4.167H39.188c-.457,0-1.067.2-1.067,1.169v2.541h3.862Zm.61.1" transform="translate(-30.6 -24.6)" fill="#fff"/>
  </g>
</svg>
