<svg id="Group_975" data-name="Group 975" xmlns="http://www.w3.org/2000/svg" width="45.432" height="45.483" viewBox="0 0 45.432 45.483">
  <g id="Group_972" data-name="Group 972">
    <g id="Group_971" data-name="Group 971">
      <path id="Path_667" data-name="Path 667" d="M250.516,46.483a22.742,22.742,0,1,1,22.716-22.767A22.74,22.74,0,0,1,250.516,46.483Zm0-43.451A20.683,20.683,0,1,0,271.2,23.716,20.7,20.7,0,0,0,250.516,3.033Z" transform="translate(-227.8 -1)" fill="#fff"/>
    </g>
  </g>
  <g id="Group_974" data-name="Group 974" transform="translate(13.162 11.943)">
    <g id="Group_973" data-name="Group 973">
      <path id="Path_668" data-name="Path 668" d="M273.774,36.8V44.32H269.4V37.306c0-1.779-.61-2.948-2.236-2.948a2.372,2.372,0,0,0-2.236,1.575A3.377,3.377,0,0,0,264.779,37V44.32h-4.32s.051-11.892,0-13.111h4.37v1.88a.05.05,0,0,1-.051.051h.051v-.051a4.277,4.277,0,0,1,3.913-2.185c2.9-.051,5.031,1.829,5.031,5.9ZM253.7,44.32h4.37V31.208H253.7Zm0,0,4.472-17.584a2.236,2.236,0,1,1-2.236-2.236A2.223,2.223,0,0,1,258.172,26.736Z" transform="translate(-253.7 -24.5)" fill="#fff"/>
    </g>
  </g>
</svg>
