<svg id="Group_970" data-name="Group 970" xmlns="http://www.w3.org/2000/svg" width="45.432" height="45.433" viewBox="0 0 45.432 45.433">
  <g id="Group_967" data-name="Group 967">
    <g id="Group_966" data-name="Group 966">
      <path id="Path_665" data-name="Path 665" d="M137.516,47.533a22.716,22.716,0,1,1,22.716-22.716A22.74,22.74,0,0,1,137.516,47.533Zm0-43.451a20.683,20.683,0,0,0,0,41.367h0a20.683,20.683,0,1,0,0-41.367Z" transform="translate(-114.8 -2.1)" fill="#fff"/>
    </g>
  </g>
  <g id="Group_969" data-name="Group 969" transform="translate(11.231 15.144)">
    <g id="Group_968" data-name="Group 968">
      <path id="Path_666" data-name="Path 666" d="M159.616,35.3a3.405,3.405,0,0,0-3.4-3.4H140.3a3.405,3.405,0,0,0-3.4,3.4v9.1a3.405,3.405,0,0,0,3.4,3.4h15.957a3.405,3.405,0,0,0,3.4-3.4V35.3Zm-13.569,8.334V35.1L152.5,39.37Zm0,0" transform="translate(-136.9 -31.9)" fill="#fff" fill-rule="evenodd"/>
    </g>
  </g>
</svg>
